<svg width="17" height="14" viewBox="0 0 17 14" fill="none" xmlns="http://www.w3.org/2000/svg">
<path d="M16.2744 8.18092C16.5482 7.74183 16.6667 7.23058 16.6667 6.71308V6.62025C16.6667 6.10275 16.5482 5.5915 16.2744 5.15242C15.8758 4.51295 15.1732 3.50647 14.1667 2.5C12.911 1.24437 11.6554 0.461725 11.1124 0.152058C10.9306 0.0483582 10.7243 0 10.515 0C9.51267 0 8.82608 1.07231 9.14617 2.02218C9.3465 2.61667 9.54842 3.30908 9.7055 4.05309C9.81042 4.54964 9.41992 5 8.91242 5H0.833333C0.3731 5 0 5.37308 0 5.83333V7.5C0 7.96025 0.3731 8.33333 0.833333 8.33333H8.91242C9.41992 8.33333 9.81042 8.78367 9.7055 9.28025C9.54842 10.0242 9.3465 10.7167 9.14617 11.3112C8.82608 12.261 9.51267 13.3333 10.515 13.3333C10.7243 13.3333 10.9306 13.285 11.1124 13.1812C11.6554 12.8716 12.911 12.089 14.1667 10.8333C15.1732 9.82683 15.8758 8.82042 16.2744 8.18092Z" fill="#6EE4B5"/>
</svg>
