<svg width="28" height="28" viewBox="0 0 28 28" fill="none" xmlns="http://www.w3.org/2000/svg">
<g clip-path="url(#clip0_14418_191)">
<path d="M14 28C21.732 28 28 21.732 28 14C28 6.26801 21.732 0 14 0C6.26801 0 0 6.26801 0 14C0 21.732 6.26801 28 14 28Z" fill="#1DA1F2"/>
<path d="M10.6056 21.308C17.5111 21.308 21.2871 15.6853 21.2871 10.8096C21.2871 10.65 21.2838 10.491 21.2765 10.3327C22.0096 9.81188 22.6467 9.16191 23.1492 8.42205C22.4765 8.7159 21.7527 8.91375 20.9933 9.0029C21.7684 8.54614 22.3635 7.82351 22.6442 6.96202C21.9188 7.38465 21.1155 7.69184 20.2603 7.85763C19.5751 7.14043 18.5999 6.69189 17.5199 6.69189C15.4467 6.69189 13.7654 8.34431 13.7654 10.3812C13.7654 10.6708 13.7984 10.9524 13.8628 11.2226C10.7425 11.0683 7.97577 9.60004 6.12435 7.3674C5.80193 7.91267 5.61601 8.54614 5.61601 9.22197C5.61601 10.5022 6.27878 11.6323 7.28666 12.2934C6.67074 12.2747 6.09214 12.1085 5.58637 11.8319C5.58582 11.8474 5.58582 11.8625 5.58582 11.879C5.58582 13.666 6.87988 15.158 8.59774 15.4961C8.2823 15.5806 7.95035 15.6259 7.60779 15.6259C7.36626 15.6259 7.13094 15.6026 6.90221 15.5594C7.38018 17.0255 8.76611 18.0924 10.4093 18.1222C9.12436 19.1121 7.50567 19.7016 5.74648 19.7016C5.44382 19.7016 5.14483 19.6848 4.85095 19.6506C6.51245 20.6973 8.48537 21.308 10.6058 21.308" fill="white"/>
</g>
<defs>
<clipPath id="clip0_14418_191">
<rect width="28" height="28" fill="white"/>
</clipPath>
</defs>
</svg>
