<svg width="28" height="28" viewBox="0 0 28 28" fill="none" xmlns="http://www.w3.org/2000/svg">
<g clip-path="url(#clip0_14418_137)">
<path d="M14 28C21.732 28 28 21.732 28 14C28 6.26801 21.732 0 14 0C6.26801 0 0 6.26801 0 14C0 21.732 6.26801 28 14 28Z" fill="#282828"/>
<path d="M22.8501 9.46992C22.6483 8.72033 22.0573 8.12931 21.3077 7.92749C19.9383 7.55273 14.4606 7.55273 14.4606 7.55273C14.4606 7.55273 8.98281 7.55273 7.61339 7.91312C6.87819 8.11495 6.27276 8.72033 6.07095 9.46992C5.71057 10.8393 5.71057 13.6791 5.71057 13.6791C5.71057 13.6791 5.71057 16.5334 6.07095 17.8883C6.27276 18.6379 6.86378 19.229 7.61339 19.4308C8.99718 19.8055 14.4606 19.8055 14.4606 19.8055C14.4606 19.8055 19.9383 19.8055 21.3077 19.4452C22.0573 19.2434 22.6483 18.6524 22.8501 17.9028C23.2105 16.5334 23.2105 13.6936 23.2105 13.6936C23.2105 13.6936 23.2249 10.8393 22.8501 9.46992Z" fill="white"/>
<path d="M17.2717 13.6783L12.7166 11.0547V16.3018L17.2717 13.6783Z" fill="#191919"/>
</g>
<defs>
<clipPath id="clip0_14418_137">
<rect width="28" height="28" fill="white"/>
</clipPath>
</defs>
</svg>
